<svg xmlns="http://www.w3.org/2000/svg" viewBox="0 0 512 512" role="img" aria-labelledby="title desc">
  <title id="title">NYU Spatial Data Repository app icon</title>
  <desc id="desc">A stacked NYU Violet app icon with the torch mark and NYU wordmark.</desc>
  <rect width="512" height="512" fill="#57068c"/>
  <g transform="translate(128 54) scale(6.45)" fill="#ffffff" fill-rule="evenodd">
    <path d="M40.2,39.4H1.7V0.9h38.5V39.4z M19.6,34.9c0,0.3,0.6,0.4,0.8,0l1.3-10.7h-3.2L19.6,34.9L19.6,34.9z M22.8,21.9h-5.5v1.7h5.5V21.9L22.8,21.9z M21.3,21c7.1,0.3,7.6-6.2,7.6-8.6c0-0.1-0.1-0.1-0.1,0c-0.3,0.5-1.2,2.3-3.6,3.3C22.8,16.7,21.4,18.9,21.3,21C21.2,21,21.3,21,21.3,21L21.3,21z M20.5,20.6c1.2-5.3,5.4-5.5,5.8-6.4c0.6-1.5-0.5-4.4-0.8-4.8h-0.1c-0.6,1.3-1.5,2.6-2.2,3.1C22.3,13.2,18.5,16.1,20.5,20.6C20.4,20.6,20.5,20.6,20.5,20.6L20.5,20.6z M19.7,20.8c-2.3-5,2.3-8.2,3.1-9c0.1-0.1,0.1-0.1,0.1-0.3c0-1.5-0.9-4.1-1.2-4.5h-0.1c-0.4,1.5-2.6,3.9-3,4.4C15,15.7,15.9,18.4,19.7,20.8L19.7,20.8L19.7,20.8z M18.7,21c-4-2.3-3.6-5.7-1.9-8.2c0,0,0-0.1,0-0.3c-0.1-0.6-0.8-2.1-1-2.4c-0.1-0.1-0.1-0.1-0.1,0c0,0.6-0.8,2.3-1.9,4.2C12.5,16.3,12.5,20.8,18.7,21C18.7,21.1,18.7,21,18.7,21L18.7,21z"/>
  </g>
  <g transform="translate(-155 314) scale(5.05)" fill="#ffffff">
    <path d="M50.4,9h4.5l10.3,13.5V9H70v22h-4.1L55.1,17v14h-4.8V9L50.4,9z M80.8,22.4L72.3,9h5.7l5.3,8.9L88.6,9h5.5l-8.5,13.3V31h-4.9L80.8,22.4L80.8,22.4z M96.1,21.3V9h4.8v12.2c0,3.5,1.8,5.4,4.6,5.4c3,0,4.6-1.8,4.6-5.2V9.1h4.8v12.2c0,6.6-3.7,9.8-9.5,9.8C99.6,31,96.1,27.8,96.1,21.3z"/>
  </g>
</svg>
